<svg xmlns="http://www.w3.org/2000/svg" xmlns:xlink="http://www.w3.org/1999/xlink" x="0px" y="0px"
	 viewBox="0 0 32 38" xml:space="preserve">
<path fill="#231f20" d="M16,37.7c8.8,0,16-7.2,16-16C23.2,21.7,16,28.8,16,37.7z M4.6,16.8c0,2.5,2,4.4,4.4,4.4c0.9,0,1.8-0.3,2.5-0.8
	l0,0.3c0,2.5,2,4.4,4.4,4.4s4.4-2,4.4-4.4l0-0.3c0.7,0.5,1.6,0.8,2.5,0.8c2.5,0,4.4-2,4.4-4.4c0-1.8-1-3.3-2.5-4
	c1.5-0.7,2.5-2.2,2.5-4c0-2.5-2-4.4-4.4-4.4c-0.9,0-1.8,0.3-2.5,0.8l0-0.3c0-2.5-2-4.4-4.4-4.4s-4.4,2-4.4,4.4l0,0.3
	C10.9,4.6,10,4.3,9.1,4.3c-2.5,0-4.4,2-4.4,4.4c0,1.8,1,3.3,2.5,4C5.7,13.5,4.6,15,4.6,16.8z M16,8.3c2.5,0,4.4,2,4.4,4.4
	s-2,4.4-4.4,4.4s-4.4-2-4.4-4.4C11.6,10.3,13.5,8.3,16,8.3z M0,21.7c0,8.8,7.2,16,16,16C16,28.8,8.8,21.7,0,21.7z"/>
</svg>
