<svg xmlns="http://www.w3.org/2000/svg" xmlns:xlink="http://www.w3.org/1999/xlink" x="0px" y="0px" width="20.294px" height="18.849px" viewBox="0 0 21 19" xml:space="preserve">
<path fill="#231F20" d="M19.9,7.3h-3.2l-3.4-6.8c-0.2-0.4-0.6-0.5-1-0.3c-0.4,0.2-0.5,0.6-0.3,1l3.1,6.1H5.9L9,1.2c0.2-0.4,0-0.8-0.3-1
	s-0.8,0-1,0.3L4.3,7.3H1.1c-0.4,0-0.8,0.3-0.8,0.8c0,0.4,0.3,0.8,0.8,0.8h0.2l0.9,3c-0.2,0.1-0.3,0.3-0.3,0.6c0,0.4,0.3,0.7,0.7,0.7
	l1.7,5.8h12.7l1.7-5.8c0.4,0,0.7-0.3,0.7-0.7c0-0.2-0.1-0.5-0.3-0.6l0.9-3h0.2c0.4,0,0.8-0.3,0.8-0.8C20.6,7.6,20.3,7.3,19.9,7.3z
	 M15.7,17.4H5.3l-1.2-4.3h12.9L15.7,17.4z M17.4,11.6H3.6L2.8,8.8h15.4L17.4,11.6z"/>
</svg>
